<?xml version="1.0" standalone="no"?><!DOCTYPE svg PUBLIC "-//W3C//DTD SVG 1.1//EN" "http://www.w3.org/Graphics/SVG/1.1/DTD/svg11.dtd"><svg t="1693380542451" class="icon" viewBox="0 0 1024 1024" version="1.1" xmlns="http://www.w3.org/2000/svg" p-id="5460" data-darkreader-inline-fill="" xmlns:xlink="http://www.w3.org/1999/xlink" width="128" height="128"><path d="M1024 512c0 283.306667-228.693333 512-512 512S0 795.306667 0 512 228.693333 0 512 0s512 228.693333 512 512" fill="#C3A723" p-id="5461" data-darkreader-inline-fill="" style="--darkreader-inline-fill: #9c861c;"></path><path d="M556.373333 682.666667H443.733333v-143.36h112.64v-58.026667H443.733333V341.333333h105.813334s129.706667 0 129.706666 160.426667c0 187.733333-122.88 180.906667-122.88 180.906667m-17.066666-443.733334H337.92v242.346667H273.066667v58.026667h64.853333V785.066667h211.626667s232.106667 6.826667 232.106666-293.546667C785.066667 238.933333 539.306667 238.933333 539.306667 238.933333" fill="#FFFFFF" p-id="5462" data-darkreader-inline-fill="" style="--darkreader-inline-fill: #181a1b;"></path></svg>