<?xml version="1.0" standalone="no"?><!DOCTYPE svg PUBLIC "-//W3C//DTD SVG 1.1//EN" "http://www.w3.org/Graphics/SVG/1.1/DTD/svg11.dtd"><svg t="1694854328172" class="icon" viewBox="0 0 1024 1024" version="1.1" xmlns="http://www.w3.org/2000/svg" p-id="82753" data-darkreader-inline-fill="" xmlns:xlink="http://www.w3.org/1999/xlink" width="16" height="16"><path d="M511.371087 1022.750236c281.962835 0 511.37915-229.408252 511.379149-511.379149C1022.750236 229.408252 793.341984 0 511.371087 0 229.408252 0 0 229.408252 0 511.371087s229.408252 511.37915 511.371087 511.379149z m0-971.655055c253.814929 0 460.283969 206.469039 460.283968 460.275906 0 253.814929-206.469039 460.283969-460.283968 460.283968-253.806866 0-460.275906-206.469039-460.275906-460.283968 0-253.806866 206.469039-460.275906 460.275906-460.275906zM289.267906 537.027528h382.484157L571.650016 637.129575a25.430677 25.430677 0 0 0 0 36.08189 25.398425 25.398425 0 0 0 18.141732 7.506645c6.676157 0 13.142677-2.499528 18.141732-7.498582L751.632126 529.512819a25.430677 25.430677 0 0 0 0-36.08189L607.93348 349.748409a25.430677 25.430677 0 0 0-36.081889 0 25.430677 25.430677 0 0 0 0 36.073827L671.969764 485.932346H289.267906a25.640315 25.640315 0 0 0-25.656441 25.648378c0 14.190866 11.473638 25.446803 25.656441 25.446804z" fill="#706d3b" p-id="82754" data-darkreader-inline-fill="" style="--darkreader-inline-fill: #5a572f;"></path></svg>