<?xml version="1.0" standalone="no"?><!DOCTYPE svg PUBLIC "-//W3C//DTD SVG 1.1//EN" "http://www.w3.org/Graphics/SVG/1.1/DTD/svg11.dtd"><svg t="1692594162095" class="icon" viewBox="0 0 1024 1024" version="1.1" xmlns="http://www.w3.org/2000/svg" p-id="10734" data-darkreader-inline-fill="" xmlns:xlink="http://www.w3.org/1999/xlink" width="16" height="16"><path d="M512 512m-512 0a512 512 0 1 0 1024 0 512 512 0 1 0-1024 0Z" fill="#FCBB05" p-id="10735" data-darkreader-inline-fill="" style="--darkreader-inline-fill: #966f02;"></path><path d="M480 711.424c27.245714 0 50.176-2.194286 68.864-6.582857 24.576-5.705143 45.860571-14.518857 63.853714-26.404572 17.993143-11.922286 35.218286-28.379429 51.712-49.444571a267.337143 267.337143 0 0 0 40.009143-73.142857c10.166857-27.721143 15.286857-58.404571 15.286857-92.16 0-28.16-4.096-53.577143-12.288-76.251429a142.518857 142.518857 0 0 0-36.571428-56.722285 132.754286 132.754286 0 0 0-58.587429-31.561143c-15.981714-4.388571-39.131429-6.582857-69.412571-6.582857H416.548571L329.142857 711.424h150.857143z m-18.578286-47.433143h-66.267428l67.693714-323.693714h74.020571c28.525714 0 49.590857 2.194286 63.122286 6.582857 18.285714 5.851429 33.353143 17.92 45.165714 36.132571 11.812571 18.176 17.700571 44.251429 17.700572 78.116572 0 30.500571-4.315429 57.673143-12.982857 81.554286a232.886857 232.886857 0 0 1-34.742857 63.890285 147.017143 147.017143 0 0 1-36.864 34.011429c-10.24 6.656-22.674286 11.702857-37.12 15.140571-23.259429 5.485714-49.810286 8.265143-79.725715 8.265143z" fill="#FFFFFF" p-id="10736" data-darkreader-inline-fill="" style="--darkreader-inline-fill: #181a1b;"></path></svg>