<?xml version="1.0" standalone="no"?><!DOCTYPE svg PUBLIC "-//W3C//DTD SVG 1.1//EN" "http://www.w3.org/Graphics/SVG/1.1/DTD/svg11.dtd"><svg t="1694854054707" class="icon" viewBox="0 0 1024 1024" version="1.1" xmlns="http://www.w3.org/2000/svg" p-id="79970" data-darkreader-inline-fill="" xmlns:xlink="http://www.w3.org/1999/xlink" width="16" height="16"><path d="M512 1024c282.7648 0 512-229.2352 512-512S794.7648 0 512 0 0 229.2352 0 512s229.2352 512 512 512z" fill="#b0ac60" fill-opacity=".1" p-id="79971" data-darkreader-inline-fill="" style="--darkreader-inline-fill: #615f30;"></path><path d="M512 1024c282.7648 0 512-229.2352 512-512S794.7648 0 512 0 0 229.2352 0 512s229.2352 512 512 512z m0-25.6C243.3664 998.4 25.6 780.6336 25.6 512S243.3664 25.6 512 25.6s486.4 217.7664 486.4 486.4-217.7664 486.4-486.4 486.4z" fill="#b0ac60" p-id="79972" data-darkreader-inline-fill="" style="--darkreader-inline-fill: #615f30;"></path><path d="M332.8 755.2V249.6c0-23.4624 12.8-36.2624 38.4-38.4h140.8c162.1376 8.5376 248.5376 104.5376 259.2 288-8.5376 187.7376-90.6624 285.8624-246.4 294.4H371.2c-25.6 0-38.4-12.8-38.4-38.4z m73.6-483.2v460.8h102.4c117.3376-2.1376 179.2-80 185.6-233.6-6.4-147.2-70.4-222.9376-192-227.2h-96z" fill="#b0ac60" p-id="79973" data-darkreader-inline-fill="" style="--darkreader-inline-fill: #615f30;"></path></svg>