<?xml version="1.0" standalone="no"?><!DOCTYPE svg PUBLIC "-//W3C//DTD SVG 1.1//EN" "http://www.w3.org/Graphics/SVG/1.1/DTD/svg11.dtd"><svg t="1693093500231" class="icon" viewBox="0 0 1024 1024" version="1.1" xmlns="http://www.w3.org/2000/svg" p-id="28287" data-darkreader-inline-fill="" xmlns:xlink="http://www.w3.org/1999/xlink" width="16" height="16"><path d="M712 953.9H151.4c-47.9 0-86.7-38.8-86.7-86.7V241.7c0-47.9 38.8-86.7 86.7-86.7h312.7c13.6 0 24.6 11 24.6 24.6s-11 24.6-24.6 24.6H176c-34.3 0-62.1 27.8-62.1 62.1v576.3c0 34.3 27.8 62.1 62.1 62.1h511.4c70.1 0 127-56.9 127-127V554.5c0-13.6 11-24.6 24.6-24.6 13.6 0 24.6 11 24.6 24.6v247.9c-0.1 83.6-67.9 151.5-151.6 151.5z" fill="#6C8CD5" p-id="28288" data-darkreader-inline-fill="" style="--darkreader-inline-fill: #254080;"></path><path d="M377.7 685.6c-6.3 0-12.4-2.5-17-7-5.9-5.8-8.4-14.2-6.6-22.2l30.3-141.7c2.8-13 15.6-21.4 28.7-18.6 13.1 2.8 21.4 15.6 18.6 28.7l-22.4 104.8L514 606.1c13-2.9 26 5.3 28.9 18.3 2.9 13-5.3 26-18.3 28.9L383 685c-1.7 0.4-3.5 0.6-5.3 0.6zM862.3 278.2L750 169.3" fill="#FFAB00" p-id="28289" data-darkreader-inline-fill="" style="--darkreader-inline-fill: #996700;"></path><path d="M862.3 302.3c-6.1 0-12.1-2.3-16.8-6.8L733.2 186.6c-9.6-9.3-9.8-24.6-0.5-34.2 9.3-9.6 24.6-9.8 34.2-0.5l112.3 108.9c9.6 9.3 9.8 24.6 0.5 34.2-4.8 4.9-11.1 7.3-17.4 7.3z" fill="#6C8CD3" p-id="28290" data-darkreader-inline-fill="" style="--darkreader-inline-fill: #71a1d4;"></path><path d="M522.4 650.6c-6.1 0-12.2-2.3-16.9-6.9-9.6-9.3-9.7-24.6-0.4-34.2L901 203.9l-77.3-75.5-395.9 405.7c-9.3 9.5-24.6 9.7-34.2 0.4-9.6-9.3-9.7-24.6-0.4-34.2L805.9 77.4c9.3-9.5 24.6-9.7 34.2-0.4L952 186.2c4.6 4.5 7.2 10.6 7.3 17 0.1 6.4-2.4 12.6-6.9 17.2L539.7 643.3c-4.7 4.9-11 7.3-17.3 7.3z" fill="#FFAB00" p-id="28291" data-darkreader-inline-fill="" style="--darkreader-inline-fill: #996700;"></path></svg>